<svg xmlns="http://www.w3.org/2000/svg" xmlns:xlink="http://www.w3.org/1999/xlink" version="1.1" width="256" height="256" viewBox="0 0 256 256" xml:space="preserve">
<g style="stroke: none; stroke-width: 0; stroke-dasharray: none; stroke-linecap: butt; stroke-linejoin: miter; stroke-miterlimit: 10; fill: none; fill-rule: nonzero; opacity: 1;" transform="translate(1.4065934065934016 1.4065934065934016) scale(2.81 2.81)">
	<rect x="0" y="0" rx="0" ry="0" width="90" height="90" style="stroke: none; stroke-width: 1; stroke-dasharray: none; stroke-linecap: butt; stroke-linejoin: miter; stroke-miterlimit: 10; fill: none; fill-rule: nonzero; opacity: 1;" transform=" matrix(1 0 0 1 0 0) "/>
	<path d="M 57.593 74.998 H 32.407 c -9.598 0 -17.406 -7.808 -17.406 -17.406 V 32.406 c 0 -9.598 7.808 -17.406 17.406 -17.406 h 25.186 c 9.599 0 17.408 7.808 17.408 17.406 v 25.186 C 75.001 67.19 67.193 74.998 57.593 74.998 z M 32.407 19.442 c -7.148 0 -12.962 5.815 -12.962 12.962 V 57.59 c -0.001 7.149 5.814 12.963 12.962 12.963 h 25.186 c 7.148 0 12.963 -5.814 12.963 -12.962 V 32.406 c 0 -7.148 -5.815 -12.962 -12.963 -12.962 H 32.407 V 19.442 z" style="stroke: none; stroke-width: 1; stroke-dasharray: none; stroke-linecap: butt; stroke-linejoin: miter; stroke-miterlimit: 10; fill: rgb(0,0,0); fill-rule: nonzero; opacity: 1;" transform=" matrix(1 0 0 1 0 0) " stroke-linecap="round"/>
	<path d="M 44.999 61.488 c -9.092 0 -16.487 -7.396 -16.487 -16.487 c 0 -9.092 7.396 -16.487 16.487 -16.487 s 16.487 7.396 16.487 16.487 S 54.089 61.488 44.999 61.488 z M 44.999 32.958 c -6.641 0 -12.042 5.402 -12.042 12.042 s 5.401 12.044 12.042 12.044 S 57.041 51.642 57.041 45 S 51.639 32.958 44.999 32.958 z" style="stroke: none; stroke-width: 1; stroke-dasharray: none; stroke-linecap: butt; stroke-linejoin: miter; stroke-miterlimit: 10; fill: rgb(0,0,0); fill-rule: nonzero; opacity: 1;" transform=" matrix(1 0 0 1 0 0) " stroke-linecap="round"/>
	<circle cx="60.942" cy="27.952" r="3.332" style="stroke: none; stroke-width: 1; stroke-dasharray: none; stroke-linecap: butt; stroke-linejoin: miter; stroke-miterlimit: 10; fill: rgb(0,0,0); fill-rule: nonzero; opacity: 1;" transform="  matrix(1 0 0 1 0 0) "/>
</g>
</svg>
